<?xml version="1.0" encoding="utf-8"?>
<svg xmlns="http://www.w3.org/2000/svg" viewBox="0 0 500 500">
  <g id="Layer_1" style="" transform="matrix(20.290535, 0, 0, 20.060644, -9526.283203, -4953.326172)">
    <path d="M 481.832 261.292 C 480.175 261.292 478.832 262.635 478.832 264.292 L 478.832 271.318 L 484.832 271.318 L 484.832 264.292 C 484.832 262.635 483.489 261.292 481.832 261.292 Z" style="stroke-width: 1px; fill: rgb(255, 255, 255);"/>
    <path d="M 483.17 248.125 C 482.409 247.44 481.254 247.44 480.494 248.125 L 469.832 257.721 L 469.832 268.121 C 469.832 268.969 470.169 269.783 470.769 270.383 C 471.369 270.983 472.183 271.321 473.032 271.321 L 476.832 271.321 L 476.832 264.292 C 476.832 261.53 479.07 259.292 481.832 259.292 C 484.593 259.292 486.832 261.53 486.832 264.292 L 486.832 271.318 L 490.632 271.318 C 491.481 271.318 492.294 270.98 492.895 270.38 C 493.495 269.78 493.832 268.966 493.832 268.118 L 493.832 257.718 L 483.17 248.125 Z" style="stroke-width: 1px; fill: rgb(255, 255, 255);"/>
  </g>
</svg>