<?xml version="1.0" encoding="utf-8"?>
<svg xmlns="http://www.w3.org/2000/svg" viewBox="0 0 500 500">
  <g id="Capa_1" transform="matrix(0.896411, 0, 0, 0.858327, -185.44136, 3.712309)" style="">
    <g transform="matrix(1, 0, 0, 1, 225.831863, 17.830105)">
      <path d="M480,224H32c-17.673,0-32,14.327-32,32s14.327,32,32,32h448c17.673,0,32-14.327,32-32S497.673,224,480,224z" style="fill: rgb(255, 255, 255);"/>
      <path d="M32,138.667h448c17.673,0,32-14.327,32-32s-14.327-32-32-32H32c-17.673,0-32,14.327-32,32S14.327,138.667,32,138.667z" style="fill: rgb(255, 255, 255);"/>
      <path d="M480,373.333H32c-17.673,0-32,14.327-32,32s14.327,32,32,32h448c17.673,0,32-14.327,32-32S497.673,373.333,480,373.333z" style="fill: rgb(255, 255, 255);"/>
    </g>
  </g>
</svg>